<?xml version="1.0" encoding="iso-8859-1"?>
<!-- Generator: Adobe Illustrator 19.0.0, SVG Export Plug-In . SVG Version: 6.00 Build 0)  -->
<svg version="1.1" id="Capa_1" xmlns="http://www.w3.org/2000/svg" xmlns:xlink="http://www.w3.org/1999/xlink" x="0px" y="0px"
	 viewBox="0 0 48.75 48.75" style="enable-background:new 0 0 48.75 48.75;" xml:space="preserve">
<g>
	<path d="M43.192,32.834c0.552,0,1-0.447,1-1V1c0-0.553-0.448-1-1-1H5.558c-0.552,0-1,0.447-1,1v46.75c0,0.553,0.448,1,1,1H31.05
		c0.265,0,0.52-0.105,0.707-0.293l12.142-12.143c0.286-0.286,0.372-0.716,0.217-1.09c-0.155-0.374-0.52-0.617-0.924-0.617
		l-12.143,0.001c-0.552,0-1,0.447-1,1v8.809c0,0.553,0.448,1,1,1c0.552,0,1-0.447,1-1v-7.809l8.729-0.001L30.636,46.75H6.558V2
		h35.634v29.834C42.192,32.387,42.64,32.834,43.192,32.834z"/>
	<path d="M11.162,12.938h9.281c0.552,0,1-0.447,1-1c0-0.553-0.448-1-1-1h-9.281c-0.552,0-1,0.447-1,1
		C10.162,12.49,10.61,12.938,11.162,12.938z"/>
	<path d="M26.634,12.938c0.552,0,1-0.447,1-1c0-0.553-0.448-1-1-1h-2.836c-0.552,0-1,0.447-1,1c0,0.553,0.448,1,1,1H26.634z"/>
	<path d="M37.589,10.938h-7.793c-0.552,0-1,0.447-1,1c0,0.553,0.448,1,1,1h7.793c0.552,0,1-0.447,1-1
		C38.589,11.385,38.141,10.938,37.589,10.938z"/>
	<path d="M11.162,23.438h9.281c0.552,0,1-0.447,1-1c0-0.553-0.448-1-1-1h-9.281c-0.552,0-1,0.447-1,1
		C10.162,22.99,10.61,23.438,11.162,23.438z"/>
	<path d="M26.634,21.438h-2.836c-0.552,0-1,0.447-1,1c0,0.553,0.448,1,1,1h2.836c0.552,0,1-0.447,1-1
		C27.634,21.885,27.186,21.438,26.634,21.438z"/>
	<path d="M37.589,21.438h-7.793c-0.552,0-1,0.447-1,1c0,0.553,0.448,1,1,1h7.793c0.552,0,1-0.447,1-1
		C38.589,21.885,38.141,21.438,37.589,21.438z"/>
	<path d="M37.589,16.188H30.69c-0.552,0-1,0.447-1,1c0,0.553,0.448,1,1,1h6.899c0.552,0,1-0.447,1-1
		C38.589,16.635,38.141,16.188,37.589,16.188z"/>
	<path d="M28.528,17.188c0-0.553-0.448-1-1-1h-7.794c-0.552,0-1,0.447-1,1c0,0.553,0.448,1,1,1h7.794
		C28.08,18.188,28.528,17.74,28.528,17.188z"/>
	<path d="M11.162,18.188h4.994c0.552,0,1-0.447,1-1c0-0.553-0.448-1-1-1h-4.994c-0.552,0-1,0.447-1,1
		C10.162,17.74,10.61,18.188,11.162,18.188z"/>
</g>
<g>
</g>
<g>
</g>
<g>
</g>
<g>
</g>
<g>
</g>
<g>
</g>
<g>
</g>
<g>
</g>
<g>
</g>
<g>
</g>
<g>
</g>
<g>
</g>
<g>
</g>
<g>
</g>
<g>
</g>
</svg>
