<?xml version="1.0" standalone="no"?>
<!DOCTYPE svg PUBLIC "-//W3C//DTD SVG 20010904//EN"
 "http://www.w3.org/TR/2001/REC-SVG-20010904/DTD/svg10.dtd">
<svg version="1.0" xmlns="http://www.w3.org/2000/svg"
 width="260.000000pt" height="260.000000pt" viewBox="0 0 260.000000 260.000000"
 preserveAspectRatio="xMidYMid meet">
<metadata>
Created by potrace 1.14, written by Peter Selinger 2001-2017
</metadata>
<g transform="translate(0.000000,260.000000) scale(0.100000,-0.100000)"
fill="#000000" stroke="none">
<path d="M2444 2518 c-3 -4 -15 -7 -27 -7 -12 1 -36 -3 -54 -9 -17 -6 -34 -8
-37 -4 -3 3 -6 1 -6 -4 0 -5 -8 -10 -17 -11 -10 -1 -31 -4 -48 -8 -16 -3 -41
-7 -55 -9 -14 -1 -24 -7 -23 -12 1 -5 -13 -9 -30 -10 -18 -1 -43 -4 -57 -7
-49 -13 -75 -19 -87 -19 -7 -1 -13 -5 -13 -9 0 -4 -9 -5 -20 -2 -11 3 -20 1
-20 -4 0 -5 -10 -10 -22 -11 -26 -2 -63 -10 -63 -12 0 -1 -8 -3 -17 -6 -10 -2
-26 -6 -35 -8 -10 -3 -20 -5 -23 -6 -3 -1 -9 -2 -13 -1 -4 1 -16 -3 -26 -8
-10 -6 -33 -13 -52 -16 -18 -3 -36 -9 -39 -13 -3 -4 -12 -7 -20 -7 -8 1 -19
-1 -25 -4 -5 -3 -14 -6 -20 -8 -5 -1 -24 -6 -42 -11 -17 -6 -34 -8 -37 -4 -3
3 -6 1 -6 -5 0 -5 -6 -10 -12 -11 -37 -3 -65 -10 -85 -21 -13 -6 -23 -9 -23
-5 0 3 -6 1 -13 -5 -8 -6 -17 -8 -20 -4 -4 3 -7 1 -7 -6 0 -7 -4 -9 -10 -6 -5
3 -23 -1 -40 -10 -16 -8 -30 -13 -30 -10 0 3 -13 -1 -29 -9 -16 -9 -31 -13
-34 -10 -3 3 -18 -3 -33 -13 -16 -10 -28 -17 -29 -15 0 2 -13 -1 -28 -7 -16
-6 -33 -8 -39 -5 -6 4 -8 3 -5 -3 4 -6 -12 -16 -36 -23 -23 -7 -58 -21 -78
-31 -20 -10 -39 -15 -43 -12 -3 4 -6 1 -6 -6 0 -8 -7 -11 -15 -7 -8 3 -15 1
-15 -3 0 -5 -20 -17 -45 -27 -25 -9 -45 -20 -45 -25 0 -4 -14 -10 -30 -14 -17
-4 -28 -11 -24 -16 3 -5 -1 -9 -9 -9 -7 0 -23 -9 -35 -20 -12 -11 -25 -20 -29
-20 -5 0 -14 -9 -21 -20 -7 -12 -17 -18 -23 -15 -5 4 -8 2 -7 -3 2 -5 -10 -21
-25 -36 -15 -14 -24 -26 -20 -26 4 0 3 -4 -4 -8 -22 -14 -73 -84 -67 -93 3 -5
1 -9 -4 -9 -5 0 -17 -16 -28 -35 -10 -19 -23 -35 -27 -35 -5 0 -7 -9 -4 -20 3
-11 1 -18 -4 -14 -5 3 -9 -4 -9 -15 0 -12 -4 -21 -9 -21 -6 0 -8 -9 -6 -20 2
-11 -1 -20 -7 -20 -5 0 -7 -7 -4 -16 3 -8 2 -12 -4 -9 -6 4 -10 -5 -10 -20 0
-14 -4 -24 -8 -21 -4 2 -7 -8 -6 -22 1 -36 -6 -63 -16 -57 -5 3 -5 -8 0 -25 6
-20 5 -28 -1 -24 -7 4 -9 -5 -6 -25 3 -17 1 -31 -4 -31 -6 0 -6 -7 0 -18 7
-13 6 -23 -1 -30 -9 -9 -9 -12 1 -12 11 0 11 -3 1 -15 -7 -8 -8 -15 -3 -15 12
0 11 -30 -2 -49 -6 -10 -4 -12 5 -6 10 6 12 0 8 -24 -2 -17 -1 -31 3 -31 4 0
10 -7 13 -16 3 -9 2 -12 -5 -8 -7 4 -7 0 0 -12 16 -31 24 -58 22 -73 -1 -7 2
-10 8 -6 7 3 8 0 5 -9 -3 -9 -1 -16 5 -16 6 0 11 -9 11 -20 0 -11 4 -20 9 -20
5 0 14 -13 21 -29 6 -16 18 -32 27 -35 8 -3 12 -10 9 -15 -3 -5 1 -12 10 -15
12 -5 3 -18 -39 -58 -30 -29 -57 -61 -60 -71 -4 -10 -11 -15 -17 -12 -5 3 -10
1 -10 -5 0 -6 -11 -23 -24 -37 -14 -15 -23 -30 -20 -34 2 -4 -5 -10 -16 -14
-11 -3 -19 -9 -18 -13 1 -4 -11 -27 -27 -52 -16 -25 -29 -48 -30 -52 0 -4 -8
-17 -18 -28 -9 -11 -17 -27 -17 -35 0 -8 -3 -15 -7 -15 -9 0 -49 -91 -45 -103
1 -4 -2 -7 -8 -7 -5 0 -10 -9 -10 -20 0 -11 -5 -20 -11 -20 -6 0 -9 -6 -6 -12
2 -7 -4 -27 -14 -44 -13 -24 -15 -35 -6 -44 9 -10 9 -11 0 -6 -6 3 -13 -1 -15
-11 -7 -35 4 -62 31 -72 33 -14 81 -10 81 6 0 7 5 13 11 13 5 0 7 4 4 10 -3 5
-1 10 5 10 6 0 9 4 6 8 -3 5 1 20 9 35 8 15 12 27 10 27 -3 0 6 20 19 45 15
28 20 45 13 45 -7 1 -5 6 4 13 16 12 19 18 19 38 0 5 4 7 10 4 6 -4 7 1 3 11
-4 12 -3 15 5 10 8 -5 10 -2 6 8 -4 9 -1 16 6 16 7 0 10 7 6 15 -3 9 0 15 10
15 8 0 13 4 9 9 -3 5 1 16 9 24 8 8 12 17 9 21 -4 3 -1 6 5 6 7 0 12 7 12 15
0 7 8 19 18 24 9 6 13 11 9 11 -5 0 -2 7 5 15 31 34 36 43 31 49 -4 3 1 6 10
6 10 0 16 3 15 8 -4 11 28 53 35 45 4 -3 7 -1 7 6 0 12 88 101 101 101 4 0 9
-7 13 -15 3 -8 14 -15 25 -15 11 0 21 -4 23 -9 2 -5 10 -11 18 -13 8 -2 18 -7
21 -11 3 -4 15 -9 27 -10 12 0 24 -8 27 -16 5 -14 7 -14 15 -1 6 8 10 10 10 4
0 -11 63 -30 83 -26 4 1 7 -2 7 -7 0 -5 11 -8 25 -6 14 1 27 -1 29 -4 3 -4 27
-6 55 -6 28 0 51 -2 51 -5 0 -3 11 -5 25 -5 14 0 25 3 25 8 0 9 23 5 31 -7 4
-5 12 -5 19 -1 7 5 36 10 64 11 62 4 77 7 95 18 10 7 12 5 6 -3 -6 -10 -3 -11
14 -2 11 7 21 10 21 7 0 -2 24 2 53 10 81 23 91 25 107 27 8 1 18 6 22 11 3 5
15 11 25 12 11 2 33 10 49 19 16 8 35 15 42 15 6 0 12 5 12 11 0 6 7 9 15 5 8
-3 15 -1 15 4 0 6 7 10 16 10 8 0 13 4 10 9 -5 8 40 26 57 23 4 -1 6 1 5 5 -2
5 0 9 5 11 4 1 15 10 25 20 29 26 63 47 74 44 5 -1 7 2 3 8 -3 5 1 13 9 16 9
3 16 12 16 20 0 8 6 14 13 14 13 0 43 40 39 53 -1 4 5 7 14 7 8 0 12 5 9 10
-3 6 -1 10 4 10 6 0 11 6 11 14 0 8 7 17 16 20 9 4 14 9 10 13 -3 3 1 15 11
25 9 10 12 18 8 18 -4 0 -1 8 7 18 8 9 21 32 29 50 8 17 17 32 21 32 3 0 9 14
13 30 4 16 11 30 16 30 5 0 9 9 9 20 0 11 4 20 10 20 5 0 9 3 9 8 -4 21 2 32
14 26 6 -4 9 -4 5 1 -4 4 -2 15 5 23 8 11 8 13 0 9 -8 -5 -8 -1 0 18 7 14 15
25 20 25 4 0 7 9 7 20 0 11 4 20 8 20 8 0 12 15 13 54 0 10 3 15 6 12 8 -8 33
49 33 75 0 11 5 19 11 19 6 0 9 7 5 15 -3 9 1 15 11 15 12 0 13 3 4 14 -9 11
-9 16 1 23 12 7 17 24 21 65 1 9 5 14 9 12 7 -5 9 0 8 21 0 3 7 19 15 35 9 17
13 30 9 30 -4 0 -1 6 5 13 6 8 8 17 4 20 -3 4 -1 7 6 7 7 0 11 6 8 14 -3 7 1
23 9 35 8 11 12 21 8 21 -3 0 -1 7 6 15 7 8 9 15 5 15 -4 0 -3 6 4 13 6 8 9
23 6 36 -2 12 0 19 6 16 5 -4 10 0 11 7 0 7 2 18 3 23 2 6 3 18 4 28 0 10 5
16 9 13 5 -3 9 0 9 7 0 7 4 21 9 31 6 15 4 17 -7 11 -8 -5 -5 1 5 13 11 12 15
22 11 22 -5 0 0 7 11 16 10 8 13 12 5 8 -11 -6 -13 -3 -6 12 4 10 8 27 9 37 0
9 4 17 9 17 4 0 5 5 1 11 -3 6 -2 14 4 18 5 3 12 20 15 36 8 46 11 60 19 65 4
3 9 19 12 35 8 40 -11 85 -35 85 -11 0 -19 4 -19 9 0 11 -39 10 -46 -1z"/>
</g>
</svg>
